Jump_normalized_Motion_pl04
version=1
nRows=18
nColumns=43
inDegrees=yes
endheader
time		pelvis_tilt		pelvis_list		pelvis_rotation		pelvis_tx		pelvis_ty		pelvis_tz		hip_flexion_r		hip_adduction_r		hip_rotation_r		knee_angle_r		ankle_angle_r		subtalar_angle_r		mtp_angle_r		hip_flexion_l		hip_adduction_l		hip_rotation_l		knee_angle_l		ankle_angle_l		subtalar_angle_l		mtp_angle_l		lumbar_extension		lumbar_bending		lumbar_rotation		neck_flexion		neck_lateral_bending		neck_rotation		arm_flex_r		arm_add_r		arm_rot_r		elbow_flex_r		pro_sup_r		wrist_flex_r		wrist_dev_r		hand_finger_flex_r		arm_flex_l		arm_add_l		arm_rot_l		elbow_flex_l		pro_sup_l		wrist_flex_l		wrist_dev_l		hand_finger_flex_l		
2.403333		-3.717950		-29.959153		87.365157		0.008732		1.610869		1.638498		102.018289		-5.243762		10.515647		-138.626737		17.049554		17.563243		31.823037		97.470597		-9.848759		8.109360		-137.970767		31.428385		15.900894		15.295807		-43.384084		-6.142788		-2.945766		47.934751		6.196915		-1.733966		111.512499		-9.446243		27.750623		56.233967		81.512828		-5.903947		-8.323249		-19.375314		117.964279		-8.014156		29.274554		49.635351		88.430428		-12.017986		-4.858303		-1.077675		
2.405934		-3.647669		-29.852353		87.452092		0.008547		1.611856		1.635976		101.475658		-5.270265		10.550665		-138.587088		17.045609		17.684089		31.855679		96.927813		-9.797403		8.173502		-137.904774		31.454431		16.175002		15.390101		-43.445932		-6.130510		-2.930809		47.877589		6.337424		-1.810033		112.593180		-9.352620		28.152256		55.744755		80.717773		-5.291948		-8.895901		-20.013274		119.038087		-7.712121		29.789305		49.053031		88.364857		-11.859702		-5.037697		-1.922046		
2.408535		-3.607333		-30.178566		87.444769		0.008547		1.612043		1.633306		101.417572		-5.167447		10.586507		-138.573477		17.222276		17.808235		31.860515		96.838296		-9.887843		8.172741		-137.841713		31.451185		16.186510		15.403909		-42.942211		-6.158535		-2.860059		47.982667		6.364205		-1.817058		113.237761		-9.071937		28.115222		55.615794		80.607167		-5.248725		-8.911495		-20.126806		119.570942		-7.444462		29.730593		48.974656		88.285901		-11.843795		-5.032102		-2.062307		
2.411136		-3.556641		-30.477790		87.482351		0.008497		1.612039		1.630763		101.370059		-5.122235		10.604247		-138.607317		17.334143		18.079495		31.869977		96.767715		-9.917056		8.210833		-137.843706		31.449651		16.234808		15.437220		-42.449123		-6.163216		-2.815194		48.129622		6.407973		-1.847709		114.030000		-8.790491		28.209394		55.235531		80.385422		-5.067536		-8.908548		-20.327704		120.247973		-7.096041		29.774658		48.646195		88.128723		-11.750983		-4.959795		-2.342886		
2.413737		-3.502583		-30.752017		87.526391		0.008211		1.612397		1.628051		101.225691		-5.101347		10.687108		-138.577672		17.394048		18.292173		31.876442		96.597528		-9.872140		8.240496		-137.773426		31.421760		16.284335		15.460496		-42.006732		-6.116502		-2.738685		48.083193		6.457844		-1.875867		114.710093		-8.595178		28.267128		55.126682		80.228950		-4.906559		-8.961037		-20.457961		120.831687		-6.873129		29.812627		48.510048		88.019057		-11.669896		-4.937454		-2.541308		
2.416338		-3.421428		-30.921577		87.695738		0.007641		1.612928		1.625412		100.971455		-5.215846		10.775465		-138.564099		17.469604		18.737692		31.892538		96.335014		-9.685819		8.278249		-137.697920		31.381773		16.367956		15.547494		-41.701589		-5.981984		-2.729085		47.956479		6.510749		-1.908041		115.580817		-8.533178		28.592869		54.854010		79.796846		-4.380743		-9.154757		-20.796282		121.590400		-6.644827		30.055644		48.177952		87.716501		-11.404778		-4.963770		-3.082122		
2.418939		-3.347159		-31.130332		87.839242		0.007260		1.613472		1.622723		100.750910		-5.292312		10.847346		-138.540260		17.560174		19.119697		31.906710		96.090655		-9.572679		8.296680		-137.589373		31.348514		16.431535		15.625158		-41.350925		-5.881244		-2.706513		47.886595		6.558091		-1.931745		116.399655		-8.440979		28.852169		54.584548		79.417335		-3.945102		-9.313370		-21.106781		122.302289		-6.420013		30.241078		47.891505		87.448005		-11.185116		-4.990342		-3.564419		
2.421540		-3.296901		-31.486481		87.819337		0.007285		1.613680		1.620017		100.705413		-5.201524		10.894715		-138.516212		17.538893		19.277107		31.910667		95.991332		-9.690802		8.291152		-137.502083		31.363413		16.412017		15.657280		-40.797247		-5.907267		-2.631212		48.043106		6.604427		-1.926433		117.079712		-8.175695		28.892977		54.315544		79.337106		-3.912851		-9.252399		-21.242587		122.867427		-6.172581		30.216239		47.705891		87.376038		-11.172994		-4.943136		-3.732553		
2.424141		-3.245401		-31.821532		87.807092		0.007210		1.614078		1.617227		100.612314		-5.141610		10.969337		-138.461053		17.487729		19.414094		31.913554		95.835231		-9.759373		8.294524		-137.382723		31.360194		16.405135		15.681686		-40.275576		-5.906197		-2.539787		48.085719		6.651020		-1.923159		117.697699		-7.960289		28.923245		54.183131		79.282655		-3.879015		-9.223576		-21.340669		123.394460		-5.987850		30.192413		47.598313		87.326086		-11.161903		-4.914485		-3.858130		
2.426742		-3.183575		-32.166149		87.820995		0.007158		1.614450		1.614645		100.529794		-5.115652		10.999596		-138.404043		17.097326		19.623002		31.917870		95.720696		-9.847461		8.286592		-137.265982		31.392545		16.412496		15.733535		-39.755583		-5.910380		-2.482606		48.102477		6.709323		-1.901745		118.485550		-7.777490		29.132737		53.842116		79.232530		-3.793181		-9.098181		-21.487785		124.059293		-5.731367		30.275490		47.295362		87.259140		-11.119735		-4.823023		-4.059318		
2.429343		-3.112475		-32.460424		87.797361		0.006951		1.614937		1.612031		100.385296		-5.087854		11.069599		-138.317466		16.545912		19.734943		31.927201		95.526605		-9.912245		8.302866		-137.155349		31.448969		16.443466		15.845825		-39.274673		-5.887808		-2.361190		48.069579		6.765395		-1.854808		119.323307		-7.627148		29.529196		53.463493		79.116256		-3.626686		-8.973624		-21.788527		124.768206		-5.519808		30.469770		46.874023		87.102595		-11.022061		-4.774253		-4.462178		
2.431944		-3.053496		-32.752364		87.809184		0.006957		1.615600		1.609066		100.218242		-5.049793		11.135851		-138.224371		16.394777		19.771425		31.931167		95.261531		-9.985068		8.303660		-136.971579		31.442428		16.465263		15.891004		-38.806690		-5.876839		-2.266037		47.988293		6.794431		-1.837002		119.885916		-7.506552		29.602162		53.419646		79.060793		-3.585450		-8.963657		-21.921894		125.256624		-5.389981		30.489672		46.828075		87.029383		-10.997951		-4.804174		-4.639180		
2.434545		-2.984924		-33.045490		87.817577		0.007217		1.616169		1.606232		100.047402		-5.000321		11.111258		-138.137927		15.847670		19.823258		31.936482		95.038669		-10.151181		8.297974		-136.822256		31.524413		16.515690		15.970171		-38.337203		-5.911095		-2.215092		47.987592		6.847997		-1.810320		120.618278		-7.311947		29.782766		53.056141		79.003230		-3.589026		-8.785301		-22.128558		125.868169		-5.142465		30.557843		46.555742		86.916726		-11.006602		-4.795842		-4.940390		
2.437146		-2.923685		-33.307869		87.811432		0.007154		1.616711		1.603027		99.869216		-4.981634		11.182593		-138.054939		15.684261		19.843066		31.938581		94.705532		-10.201888		8.315877		-136.680712		31.520962		16.543964		15.998785		-37.847357		-5.886952		-2.108497		47.933379		6.890869		-1.802659		121.071466		-7.151327		29.820632		53.029268		78.979184		-3.593523		-8.748666		-22.209151		126.279165		-5.050603		30.544175		46.503654		86.872726		-11.022701		-4.814202		-5.066414		
2.439747		-2.754317		-33.139583		87.664213		0.007789		1.618072		1.599901		99.148323		-4.673129		11.142690		-137.882905		14.871288		19.132300		31.971713		93.923216		-10.571849		8.502045		-136.542110		31.831601		16.903638		16.458636		-37.912914		-5.947788		-1.769506		47.746955		6.773878		-1.582159		122.168320		-7.145425		30.638610		52.564755		78.599311		-3.626323		-8.378538		-23.283976		127.225277		-4.939330		31.311392		45.884956		86.340005		-11.003790		-5.331984		-6.833847		
2.442348		-2.641607		-33.380262		87.736791		0.007987		1.618678		1.596608		98.907736		-4.655132		11.043529		-137.803311		14.436550		19.407753		31.981443		93.595208		-10.719328		8.509363		-136.371740		31.841272		16.973186		16.587917		-37.452271		-5.915646		-1.751874		47.826564		6.877998		-1.677601		122.666280		-6.908693		30.645131		52.306895		78.455173		-3.706274		-8.279298		-23.602685		127.680454		-4.763896		31.294778		45.684582		86.144836		-11.024865		-5.397883		-7.341645		
2.444949		-2.583321		-33.627482		87.784223		0.007955		1.619246		1.593061		98.712198		-4.643111		11.118145		-137.720250		14.359194		19.494256		31.983396		93.233685		-10.730536		8.533481		-136.211923		31.814160		16.989241		16.614185		-36.961389		-5.872956		-1.675921		47.754119		6.928843		-1.695030		123.018752		-6.783021		30.600312		52.303507		78.430869		-3.740242		-8.268913		-23.674355		128.009142		-4.702552		31.238571		45.678330		86.120507		-11.060943		-5.410712		-7.465421		
2.447551		-2.493318		-33.747218		87.907416		0.008038		1.619904		1.589747		98.360294		-4.705722		11.067987		-137.659390		13.717538		19.730519		31.989718		92.783874		-10.777058		8.527405		-136.085340		31.947006		17.046114		16.743451		-36.607390		-5.838798		-1.728461		47.521324		7.039133		-1.718422		123.627627		-6.541492		30.697618		51.798662		78.391475		-3.925988		-8.034257		-23.990638		128.517014		-4.445496		31.263834		45.313038		86.140600		-11.313556		-5.361308		-8.024760		
